<svg width="438" height="438" viewBox="0 0 438 438" fill="none" xmlns="http://www.w3.org/2000/svg">
<circle cx="219" cy="219" r="217.5" fill="#F5F4C8" stroke="black" stroke-width="3"/>
<circle cx="218.5" cy="218.5" r="155" fill="white" stroke="black" stroke-width="3"/>
<circle cx="219" cy="219" r="96.5" fill="#F5F4C8" stroke="black" stroke-width="3"/>
<path d="M188.98 225V212.32H193.633C195.242 212.32 196.477 212.609 197.336 213.188C198.195 213.758 198.625 214.598 198.625 215.707C198.625 216.34 198.434 216.906 198.051 217.406C197.668 217.898 197.109 218.258 196.375 218.484C197.203 218.641 197.867 218.996 198.367 219.551C198.875 220.105 199.129 220.75 199.129 221.484C199.129 222.602 198.715 223.469 197.887 224.086C197.066 224.695 195.902 225 194.395 225H188.98ZM190.375 219.164V223.828H194.441C195.496 223.828 196.309 223.625 196.879 223.219C197.449 222.812 197.734 222.227 197.734 221.461C197.734 220.758 197.449 220.199 196.879 219.785C196.309 219.371 195.496 219.164 194.441 219.164H190.375ZM190.375 217.992H193.926C196.129 217.961 197.23 217.211 197.23 215.742C197.23 214.969 196.926 214.406 196.316 214.055C195.715 213.695 194.82 213.516 193.633 213.516H190.375V217.992ZM201.484 218.473C201.484 217.254 201.719 216.156 202.188 215.18C202.664 214.203 203.332 213.445 204.191 212.906C205.059 212.359 206.039 212.086 207.133 212.086C208.82 212.086 210.188 212.68 211.234 213.867C212.281 215.047 212.805 216.613 212.805 218.566V218.859C212.805 220.086 212.566 221.191 212.09 222.176C211.621 223.152 210.957 223.906 210.098 224.438C209.238 224.969 208.258 225.234 207.156 225.234C205.477 225.234 204.109 224.645 203.055 223.465C202.008 222.277 201.484 220.707 201.484 218.754V218.473ZM202.891 218.859C202.891 220.375 203.281 221.621 204.062 222.598C204.852 223.566 205.883 224.051 207.156 224.051C208.422 224.051 209.445 223.566 210.227 222.598C211.016 221.621 211.41 220.336 211.41 218.742V218.473C211.41 217.504 211.23 216.617 210.871 215.812C210.512 215.008 210.008 214.387 209.359 213.949C208.711 213.504 207.969 213.281 207.133 213.281C205.883 213.281 204.863 213.773 204.074 214.758C203.285 215.734 202.891 217.016 202.891 218.602V218.859ZM214.574 223.816L215.195 223.008C216.18 221.672 216.746 219.719 216.895 217.148L217.117 212.32H224.605V223.816H225.918V228.727H224.523V225H214.996V228.727H213.648L213.66 223.816H214.574ZM216.191 223.816H223.199V213.633H218.453L218.301 216.926C218.16 219.949 217.457 222.246 216.191 223.816ZM236.629 225C236.488 224.602 236.398 224.012 236.359 223.23C235.867 223.871 235.238 224.367 234.473 224.719C233.715 225.062 232.91 225.234 232.059 225.234C230.84 225.234 229.852 224.895 229.094 224.215C228.344 223.535 227.969 222.676 227.969 221.637C227.969 220.402 228.48 219.426 229.504 218.707C230.535 217.988 231.969 217.629 233.805 217.629H236.348V216.188C236.348 215.281 236.066 214.57 235.504 214.055C234.949 213.531 234.137 213.27 233.066 213.27C232.09 213.27 231.281 213.52 230.641 214.02C230 214.52 229.68 215.121 229.68 215.824L228.273 215.812C228.273 214.805 228.742 213.934 229.68 213.199C230.617 212.457 231.77 212.086 233.137 212.086C234.551 212.086 235.664 212.441 236.477 213.152C237.297 213.855 237.719 214.84 237.742 216.105V222.105C237.742 223.332 237.871 224.25 238.129 224.859V225H236.629ZM232.223 223.992C233.16 223.992 233.996 223.766 234.73 223.312C235.473 222.859 236.012 222.254 236.348 221.496V218.707H233.84C232.441 218.723 231.348 218.98 230.559 219.48C229.77 219.973 229.375 220.652 229.375 221.52C229.375 222.23 229.637 222.82 230.16 223.289C230.691 223.758 231.379 223.992 232.223 223.992Z" fill="#330B28"/>
<path d="M193.98 39V26.3203H198.633C200.242 26.3203 201.477 26.6094 202.336 27.1875C203.195 27.7578 203.625 28.5977 203.625 29.707C203.625 30.3398 203.434 30.9062 203.051 31.4062C202.668 31.8984 202.109 32.2578 201.375 32.4844C202.203 32.6406 202.867 32.9961 203.367 33.5508C203.875 34.1055 204.129 34.75 204.129 35.4844C204.129 36.6016 203.715 37.4688 202.887 38.0859C202.066 38.6953 200.902 39 199.395 39H193.98ZM195.375 33.1641V37.8281H199.441C200.496 37.8281 201.309 37.625 201.879 37.2188C202.449 36.8125 202.734 36.2266 202.734 35.4609C202.734 34.7578 202.449 34.1992 201.879 33.7852C201.309 33.3711 200.496 33.1641 199.441 33.1641H195.375ZM195.375 31.9922H198.926C201.129 31.9609 202.23 31.2109 202.23 29.7422C202.23 28.9688 201.926 28.4062 201.316 28.0547C200.715 27.6953 199.82 27.5156 198.633 27.5156H195.375V31.9922ZM206.484 32.4727C206.484 31.2539 206.719 30.1562 207.188 29.1797C207.664 28.2031 208.332 27.4453 209.191 26.9062C210.059 26.3594 211.039 26.0859 212.133 26.0859C213.82 26.0859 215.188 26.6797 216.234 27.8672C217.281 29.0469 217.805 30.6133 217.805 32.5664V32.8594C217.805 34.0859 217.566 35.1914 217.09 36.1758C216.621 37.1523 215.957 37.9062 215.098 38.4375C214.238 38.9688 213.258 39.2344 212.156 39.2344C210.477 39.2344 209.109 38.6445 208.055 37.4648C207.008 36.2773 206.484 34.707 206.484 32.7539V32.4727ZM207.891 32.8594C207.891 34.375 208.281 35.6211 209.062 36.5977C209.852 37.5664 210.883 38.0508 212.156 38.0508C213.422 38.0508 214.445 37.5664 215.227 36.5977C216.016 35.6211 216.41 34.3359 216.41 32.7422V32.4727C216.41 31.5039 216.23 30.6172 215.871 29.8125C215.512 29.0078 215.008 28.3867 214.359 27.9492C213.711 27.5039 212.969 27.2812 212.133 27.2812C210.883 27.2812 209.863 27.7734 209.074 28.7578C208.285 29.7344 207.891 31.0156 207.891 32.6016V32.8594ZM219.574 37.8164L220.195 37.0078C221.18 35.6719 221.746 33.7188 221.895 31.1484L222.117 26.3203H229.605V37.8164H230.918V42.7266H229.523V39H219.996V42.7266H218.648L218.66 37.8164H219.574ZM221.191 37.8164H228.199V27.6328H223.453L223.301 30.9258C223.16 33.9492 222.457 36.2461 221.191 37.8164ZM241.629 39C241.488 38.6016 241.398 38.0117 241.359 37.2305C240.867 37.8711 240.238 38.3672 239.473 38.7188C238.715 39.0625 237.91 39.2344 237.059 39.2344C235.84 39.2344 234.852 38.8945 234.094 38.2148C233.344 37.5352 232.969 36.6758 232.969 35.6367C232.969 34.4023 233.48 33.4258 234.504 32.707C235.535 31.9883 236.969 31.6289 238.805 31.6289H241.348V30.1875C241.348 29.2812 241.066 28.5703 240.504 28.0547C239.949 27.5312 239.137 27.2695 238.066 27.2695C237.09 27.2695 236.281 27.5195 235.641 28.0195C235 28.5195 234.68 29.1211 234.68 29.8242L233.273 29.8125C233.273 28.8047 233.742 27.9336 234.68 27.1992C235.617 26.457 236.77 26.0859 238.137 26.0859C239.551 26.0859 240.664 26.4414 241.477 27.1523C242.297 27.8555 242.719 28.8398 242.742 30.1055V36.1055C242.742 37.332 242.871 38.25 243.129 38.8594V39H241.629ZM237.223 37.9922C238.16 37.9922 238.996 37.7656 239.73 37.3125C240.473 36.8594 241.012 36.2539 241.348 35.4961V32.707H238.84C237.441 32.7227 236.348 32.9805 235.559 33.4805C234.77 33.9727 234.375 34.6523 234.375 35.5195C234.375 36.2305 234.637 36.8203 235.16 37.2891C235.691 37.7578 236.379 37.9922 237.223 37.9922Z" fill="#330B28"/>
<path d="M339.566 178H338.16V172.188H331.328V178H329.922V165.32H331.328V171.004H338.16V165.32H339.566V178ZM334.738 206.234C333.66 206.234 332.684 205.969 331.809 205.438C330.941 204.906 330.266 204.168 329.781 203.223C329.297 202.27 329.055 201.203 329.055 200.023V199.52C329.055 198.301 329.289 197.203 329.758 196.227C330.234 195.25 330.895 194.484 331.738 193.93C332.582 193.367 333.496 193.086 334.48 193.086C336.02 193.086 337.238 193.613 338.137 194.668C339.043 195.715 339.496 197.148 339.496 198.969V199.754H330.449V200.023C330.449 201.461 330.859 202.66 331.68 203.621C332.508 204.574 333.547 205.051 334.797 205.051C335.547 205.051 336.207 204.914 336.777 204.641C337.355 204.367 337.879 203.93 338.348 203.328L339.227 203.996C338.195 205.488 336.699 206.234 334.738 206.234ZM334.48 194.281C333.426 194.281 332.535 194.668 331.809 195.441C331.09 196.215 330.652 197.254 330.496 198.559H338.102V198.406C338.062 197.188 337.715 196.195 337.059 195.43C336.402 194.664 335.543 194.281 334.48 194.281ZM334.938 222.164C336.547 222.164 337.852 222.691 338.852 223.746C339.852 224.793 340.352 226.184 340.352 227.918V228.223C340.352 229.371 340.121 230.406 339.66 231.328C339.207 232.242 338.551 232.957 337.691 233.473C336.84 233.98 335.859 234.234 334.75 234.234C333.078 234.234 331.723 233.68 330.684 232.57C329.652 231.453 329.137 229.965 329.137 228.105V226.98C329.137 224.355 329.637 222.258 330.637 220.688C331.637 219.117 333.059 218.18 334.902 217.875C336.066 217.688 336.883 217.434 337.352 217.113C337.828 216.793 338.066 216.355 338.066 215.801H339.273C339.273 216.457 339.137 217 338.863 217.43C338.59 217.859 338.18 218.207 337.633 218.473C337.086 218.73 336.25 218.949 335.125 219.129C333.836 219.332 332.797 219.883 332.008 220.781C331.227 221.672 330.719 222.867 330.484 224.367C330.984 223.711 331.609 223.18 332.359 222.773C333.117 222.367 333.977 222.164 334.938 222.164ZM330.543 227.93V228.223C330.543 229.652 330.93 230.816 331.703 231.715C332.477 232.605 333.492 233.051 334.75 233.051C336.016 233.051 337.031 232.602 337.797 231.703C338.562 230.797 338.945 229.609 338.945 228.141V227.836C338.945 226.516 338.555 225.438 337.773 224.602C337 223.766 335.984 223.348 334.727 223.348C333.469 223.348 332.457 223.773 331.691 224.625C330.926 225.469 330.543 226.57 330.543 227.93ZM329.055 255.473C329.055 254.254 329.289 253.156 329.758 252.18C330.234 251.203 330.902 250.445 331.762 249.906C332.629 249.359 333.609 249.086 334.703 249.086C336.391 249.086 337.758 249.68 338.805 250.867C339.852 252.047 340.375 253.613 340.375 255.566V255.859C340.375 257.086 340.137 258.191 339.66 259.176C339.191 260.152 338.527 260.906 337.668 261.438C336.809 261.969 335.828 262.234 334.727 262.234C333.047 262.234 331.68 261.645 330.625 260.465C329.578 259.277 329.055 257.707 329.055 255.754V255.473ZM330.461 255.859C330.461 257.375 330.852 258.621 331.633 259.598C332.422 260.566 333.453 261.051 334.727 261.051C335.992 261.051 337.016 260.566 337.797 259.598C338.586 258.621 338.98 257.336 338.98 255.742V255.473C338.98 254.504 338.801 253.617 338.441 252.812C338.082 252.008 337.578 251.387 336.93 250.949C336.281 250.504 335.539 250.281 334.703 250.281C333.453 250.281 332.434 250.773 331.645 251.758C330.855 252.734 330.461 254.016 330.461 255.602V255.859Z" fill="#330B28"/>
<path d="M106.934 151.516H102.316V163H100.91V151.516H96.4688V150.32H106.934V151.516ZM97.9805 191V178.32H102.633C104.242 178.32 105.477 178.609 106.336 179.188C107.195 179.758 107.625 180.598 107.625 181.707C107.625 182.34 107.434 182.906 107.051 183.406C106.668 183.898 106.109 184.258 105.375 184.484C106.203 184.641 106.867 184.996 107.367 185.551C107.875 186.105 108.129 186.75 108.129 187.484C108.129 188.602 107.715 189.469 106.887 190.086C106.066 190.695 104.902 191 103.395 191H97.9805ZM99.375 185.164V189.828H103.441C104.496 189.828 105.309 189.625 105.879 189.219C106.449 188.812 106.734 188.227 106.734 187.461C106.734 186.758 106.449 186.199 105.879 185.785C105.309 185.371 104.496 185.164 103.441 185.164H99.375ZM99.375 183.992H102.926C105.129 183.961 106.23 183.211 106.23 181.742C106.23 180.969 105.926 180.406 105.316 180.055C104.715 179.695 103.82 179.516 102.633 179.516H99.375V183.992ZM102.738 219.234C101.66 219.234 100.684 218.969 99.8086 218.438C98.9414 217.906 98.2656 217.168 97.7812 216.223C97.2969 215.27 97.0547 214.203 97.0547 213.023V212.52C97.0547 211.301 97.2891 210.203 97.7578 209.227C98.2344 208.25 98.8945 207.484 99.7383 206.93C100.582 206.367 101.496 206.086 102.48 206.086C104.02 206.086 105.238 206.613 106.137 207.668C107.043 208.715 107.496 210.148 107.496 211.969V212.754H98.4492V213.023C98.4492 214.461 98.8594 215.66 99.6797 216.621C100.508 217.574 101.547 218.051 102.797 218.051C103.547 218.051 104.207 217.914 104.777 217.641C105.355 217.367 105.879 216.93 106.348 216.328L107.227 216.996C106.195 218.488 104.699 219.234 102.738 219.234ZM102.48 207.281C101.426 207.281 100.535 207.668 99.8086 208.441C99.0898 209.215 98.6523 210.254 98.4961 211.559H106.102V211.406C106.062 210.188 105.715 209.195 105.059 208.43C104.402 207.664 103.543 207.281 102.48 207.281ZM108.023 240.789C108.023 242.766 107.586 244.336 106.711 245.5C105.836 246.656 104.664 247.234 103.195 247.234C101.461 247.234 100.133 246.625 99.2109 245.406V251.875H97.8164V234.32H99.1172L99.1875 236.113C100.102 234.762 101.426 234.086 103.16 234.086C104.676 234.086 105.863 234.66 106.723 235.809C107.59 236.957 108.023 238.551 108.023 240.59V240.789ZM106.617 240.543C106.617 238.926 106.285 237.648 105.621 236.711C104.957 235.773 104.031 235.305 102.844 235.305C101.984 235.305 101.246 235.512 100.629 235.926C100.012 236.34 99.5391 236.941 99.2109 237.73V243.812C99.5469 244.539 100.027 245.094 100.652 245.477C101.277 245.859 102.016 246.051 102.867 246.051C104.047 246.051 104.965 245.582 105.621 244.645C106.285 243.699 106.617 242.332 106.617 240.543ZM97.5352 273.816L98.1562 273.008C99.1406 271.672 99.707 269.719 99.8555 267.148L100.078 262.32H107.566V273.816H108.879V278.727H107.484V275H97.957V278.727H96.6094L96.6211 273.816H97.5352ZM99.1523 273.816H106.16V263.633H101.414L101.262 266.926C101.121 269.949 100.418 272.246 99.1523 273.816ZM99.375 294.926H103.031C103.969 294.926 104.789 295.098 105.492 295.441C106.203 295.777 106.738 296.246 107.098 296.848C107.465 297.449 107.648 298.148 107.648 298.945C107.648 300.172 107.227 301.156 106.383 301.898C105.547 302.633 104.414 303 102.984 303H97.9805V290.32H99.375V294.926ZM99.375 296.121V301.816H103.008C104.016 301.816 104.805 301.562 105.375 301.055C105.953 300.547 106.242 299.852 106.242 298.969C106.242 298.125 105.961 297.445 105.398 296.93C104.844 296.406 104.082 296.137 103.113 296.121H99.375Z" fill="#330B28"/>
</svg>
