<svg width="539" height="539" viewBox="0 0 539 539" fill="none" xmlns="http://www.w3.org/2000/svg">
<circle cx="263" cy="270" r="217.5" fill="#F5F4C8" stroke="black" stroke-width="3"/>
<circle cx="263" cy="270" r="174.5" fill="white" stroke="black" stroke-width="3"/>
<circle cx="263" cy="270" r="130.5" fill="#F5F4C8" stroke="black" stroke-width="3"/>
<circle cx="262.5" cy="269.5" r="84" fill="white" stroke="black" stroke-width="3"/>
<circle cx="263" cy="270" r="41.5" fill="#F5F4C8" stroke="black" stroke-width="3"/>
<circle cx="269.5" cy="269.5" r="268" fill="white" stroke="black" stroke-width="3"/>
<circle cx="263" cy="270" r="217.5" fill="#F5F4C8" stroke="black" stroke-width="3"/>
<circle cx="263" cy="270" r="174.5" fill="white" stroke="black" stroke-width="3"/>
<circle cx="263" cy="270" r="130.5" fill="#F5F4C8" stroke="black" stroke-width="3"/>
<circle cx="262.5" cy="269.5" r="84" fill="white" stroke="black" stroke-width="3"/>
<circle cx="263" cy="270" r="41.5" fill="#F5F4C8" stroke="black" stroke-width="3"/>
<path d="M211.566 133H210.16V121.527H203.328V133H201.922V120.32H211.566V133ZM220.238 133.234C219.16 133.234 218.184 132.969 217.309 132.438C216.441 131.906 215.766 131.168 215.281 130.223C214.797 129.27 214.555 128.203 214.555 127.023V126.52C214.555 125.301 214.789 124.203 215.258 123.227C215.734 122.25 216.395 121.484 217.238 120.93C218.082 120.367 218.996 120.086 219.98 120.086C221.52 120.086 222.738 120.613 223.637 121.668C224.543 122.715 224.996 124.148 224.996 125.969V126.754H215.949V127.023C215.949 128.461 216.359 129.66 217.18 130.621C218.008 131.574 219.047 132.051 220.297 132.051C221.047 132.051 221.707 131.914 222.277 131.641C222.855 131.367 223.379 130.93 223.848 130.328L224.727 130.996C223.695 132.488 222.199 133.234 220.238 133.234ZM219.98 121.281C218.926 121.281 218.035 121.668 217.309 122.441C216.59 123.215 216.152 124.254 215.996 125.559H223.602V125.406C223.562 124.188 223.215 123.195 222.559 122.43C221.902 121.664 221.043 121.281 219.98 121.281ZM237.922 126.789C237.922 128.766 237.484 130.336 236.609 131.5C235.734 132.656 234.562 133.234 233.094 133.234C231.359 133.234 230.031 132.625 229.109 131.406V137.875H227.715V120.32H229.016L229.086 122.113C230 120.762 231.324 120.086 233.059 120.086C234.574 120.086 235.762 120.66 236.621 121.809C237.488 122.957 237.922 124.551 237.922 126.59V126.789ZM236.516 126.543C236.516 124.926 236.184 123.648 235.52 122.711C234.855 121.773 233.93 121.305 232.742 121.305C231.883 121.305 231.145 121.512 230.527 121.926C229.91 122.34 229.438 122.941 229.109 123.73V129.812C229.445 130.539 229.926 131.094 230.551 131.477C231.176 131.859 231.914 132.051 232.766 132.051C233.945 132.051 234.863 131.582 235.52 130.645C236.184 129.699 236.516 128.332 236.516 126.543ZM241.191 133V120.32H245.844C247.453 120.32 248.688 120.609 249.547 121.188C250.406 121.758 250.836 122.598 250.836 123.707C250.836 124.34 250.645 124.906 250.262 125.406C249.879 125.898 249.32 126.258 248.586 126.484C249.414 126.641 250.078 126.996 250.578 127.551C251.086 128.105 251.34 128.75 251.34 129.484C251.34 130.602 250.926 131.469 250.098 132.086C249.277 132.695 248.113 133 246.605 133H241.191ZM242.586 127.164V131.828H246.652C247.707 131.828 248.52 131.625 249.09 131.219C249.66 130.812 249.945 130.227 249.945 129.461C249.945 128.758 249.66 128.199 249.09 127.785C248.52 127.371 247.707 127.164 246.652 127.164H242.586ZM242.586 125.992H246.137C248.34 125.961 249.441 125.211 249.441 123.742C249.441 122.969 249.137 122.406 248.527 122.055C247.926 121.695 247.031 121.516 245.844 121.516H242.586V125.992ZM253.695 126.473C253.695 125.254 253.93 124.156 254.398 123.18C254.875 122.203 255.543 121.445 256.402 120.906C257.27 120.359 258.25 120.086 259.344 120.086C261.031 120.086 262.398 120.68 263.445 121.867C264.492 123.047 265.016 124.613 265.016 126.566V126.859C265.016 128.086 264.777 129.191 264.301 130.176C263.832 131.152 263.168 131.906 262.309 132.438C261.449 132.969 260.469 133.234 259.367 133.234C257.688 133.234 256.32 132.645 255.266 131.465C254.219 130.277 253.695 128.707 253.695 126.754V126.473ZM255.102 126.859C255.102 128.375 255.492 129.621 256.273 130.598C257.062 131.566 258.094 132.051 259.367 132.051C260.633 132.051 261.656 131.566 262.438 130.598C263.227 129.621 263.621 128.336 263.621 126.742V126.473C263.621 125.504 263.441 124.617 263.082 123.812C262.723 123.008 262.219 122.387 261.57 121.949C260.922 121.504 260.18 121.281 259.344 121.281C258.094 121.281 257.074 121.773 256.285 122.758C255.496 123.734 255.102 125.016 255.102 126.602V126.859ZM272.832 133.234C271.754 133.234 270.777 132.969 269.902 132.438C269.035 131.906 268.359 131.168 267.875 130.223C267.391 129.27 267.148 128.203 267.148 127.023V126.52C267.148 125.301 267.383 124.203 267.852 123.227C268.328 122.25 268.988 121.484 269.832 120.93C270.676 120.367 271.59 120.086 272.574 120.086C274.113 120.086 275.332 120.613 276.23 121.668C277.137 122.715 277.59 124.148 277.59 125.969V126.754H268.543V127.023C268.543 128.461 268.953 129.66 269.773 130.621C270.602 131.574 271.641 132.051 272.891 132.051C273.641 132.051 274.301 131.914 274.871 131.641C275.449 131.367 275.973 130.93 276.441 130.328L277.32 130.996C276.289 132.488 274.793 133.234 272.832 133.234ZM272.574 121.281C271.52 121.281 270.629 121.668 269.902 122.441C269.184 123.215 268.746 124.254 268.59 125.559H276.195V125.406C276.156 124.188 275.809 123.195 275.152 122.43C274.496 121.664 273.637 121.281 272.574 121.281ZM295.895 133H294.488V127.188H287.656V133H286.25V120.32H287.656V126.004H294.488V120.32H295.895V133ZM304.566 133.234C303.488 133.234 302.512 132.969 301.637 132.438C300.77 131.906 300.094 131.168 299.609 130.223C299.125 129.27 298.883 128.203 298.883 127.023V126.52C298.883 125.301 299.117 124.203 299.586 123.227C300.062 122.25 300.723 121.484 301.566 120.93C302.41 120.367 303.324 120.086 304.309 120.086C305.848 120.086 307.066 120.613 307.965 121.668C308.871 122.715 309.324 124.148 309.324 125.969V126.754H300.277V127.023C300.277 128.461 300.688 129.66 301.508 130.621C302.336 131.574 303.375 132.051 304.625 132.051C305.375 132.051 306.035 131.914 306.605 131.641C307.184 131.367 307.707 130.93 308.176 130.328L309.055 130.996C308.023 132.488 306.527 133.234 304.566 133.234ZM304.309 121.281C303.254 121.281 302.363 121.668 301.637 122.441C300.918 123.215 300.48 124.254 300.324 125.559H307.93V125.406C307.891 124.188 307.543 123.195 306.887 122.43C306.23 121.664 305.371 121.281 304.309 121.281ZM317.164 121.164C318.773 121.164 320.078 121.691 321.078 122.746C322.078 123.793 322.578 125.184 322.578 126.918V127.223C322.578 128.371 322.348 129.406 321.887 130.328C321.434 131.242 320.777 131.957 319.918 132.473C319.066 132.98 318.086 133.234 316.977 133.234C315.305 133.234 313.949 132.68 312.91 131.57C311.879 130.453 311.363 128.965 311.363 127.105V125.98C311.363 123.355 311.863 121.258 312.863 119.688C313.863 118.117 315.285 117.18 317.129 116.875C318.293 116.688 319.109 116.434 319.578 116.113C320.055 115.793 320.293 115.355 320.293 114.801H321.5C321.5 115.457 321.363 116 321.09 116.43C320.816 116.859 320.406 117.207 319.859 117.473C319.312 117.73 318.477 117.949 317.352 118.129C316.062 118.332 315.023 118.883 314.234 119.781C313.453 120.672 312.945 121.867 312.711 123.367C313.211 122.711 313.836 122.18 314.586 121.773C315.344 121.367 316.203 121.164 317.164 121.164ZM312.77 126.93V127.223C312.77 128.652 313.156 129.816 313.93 130.715C314.703 131.605 315.719 132.051 316.977 132.051C318.242 132.051 319.258 131.602 320.023 130.703C320.789 129.797 321.172 128.609 321.172 127.141V126.836C321.172 125.516 320.781 124.438 320 123.602C319.227 122.766 318.211 122.348 316.953 122.348C315.695 122.348 314.684 122.773 313.918 123.625C313.152 124.469 312.77 125.57 312.77 126.93ZM324.5 126.473C324.5 125.254 324.734 124.156 325.203 123.18C325.68 122.203 326.348 121.445 327.207 120.906C328.074 120.359 329.055 120.086 330.148 120.086C331.836 120.086 333.203 120.68 334.25 121.867C335.297 123.047 335.82 124.613 335.82 126.566V126.859C335.82 128.086 335.582 129.191 335.105 130.176C334.637 131.152 333.973 131.906 333.113 132.438C332.254 132.969 331.273 133.234 330.172 133.234C328.492 133.234 327.125 132.645 326.07 131.465C325.023 130.277 324.5 128.707 324.5 126.754V126.473ZM325.906 126.859C325.906 128.375 326.297 129.621 327.078 130.598C327.867 131.566 328.898 132.051 330.172 132.051C331.438 132.051 332.461 131.566 333.242 130.598C334.031 129.621 334.426 128.336 334.426 126.742V126.473C334.426 125.504 334.246 124.617 333.887 123.812C333.527 123.008 333.023 122.387 332.375 121.949C331.727 121.504 330.984 121.281 330.148 121.281C328.898 121.281 327.879 121.773 327.09 122.758C326.301 123.734 325.906 125.016 325.906 126.602V126.859Z" fill="black"/>
<path d="M225.273 168.188H223.328V174H221.91V161.32H223.328V166.945H225.25L229.902 161.32H231.672L226.469 167.473L232.246 174H230.395L225.273 168.188ZM233.242 167.473C233.242 166.254 233.477 165.156 233.945 164.18C234.422 163.203 235.09 162.445 235.949 161.906C236.816 161.359 237.797 161.086 238.891 161.086C240.578 161.086 241.945 161.68 242.992 162.867C244.039 164.047 244.562 165.613 244.562 167.566V167.859C244.562 169.086 244.324 170.191 243.848 171.176C243.379 172.152 242.715 172.906 241.855 173.438C240.996 173.969 240.016 174.234 238.914 174.234C237.234 174.234 235.867 173.645 234.812 172.465C233.766 171.277 233.242 169.707 233.242 167.754V167.473ZM234.648 167.859C234.648 169.375 235.039 170.621 235.82 171.598C236.609 172.566 237.641 173.051 238.914 173.051C240.18 173.051 241.203 172.566 241.984 171.598C242.773 170.621 243.168 169.336 243.168 167.742V167.473C243.168 166.504 242.988 165.617 242.629 164.812C242.27 164.008 241.766 163.387 241.117 162.949C240.469 162.504 239.727 162.281 238.891 162.281C237.641 162.281 236.621 162.773 235.832 163.758C235.043 164.734 234.648 166.016 234.648 167.602V167.859ZM252.156 173.051C253.133 173.051 253.949 172.777 254.605 172.23C255.27 171.676 255.629 170.961 255.684 170.086H257.031C256.992 170.859 256.75 171.566 256.305 172.207C255.859 172.84 255.266 173.336 254.523 173.695C253.789 174.055 253 174.234 252.156 174.234C250.492 174.234 249.172 173.656 248.195 172.5C247.227 171.344 246.742 169.789 246.742 167.836V167.414C246.742 166.164 246.961 165.059 247.398 164.098C247.836 163.137 248.461 162.395 249.273 161.871C250.094 161.348 251.051 161.086 252.145 161.086C253.535 161.086 254.68 161.5 255.578 162.328C256.484 163.156 256.969 164.246 257.031 165.598H255.684C255.621 164.605 255.262 163.805 254.605 163.195C253.957 162.586 253.137 162.281 252.145 162.281C250.879 162.281 249.895 162.738 249.191 163.652C248.496 164.566 248.148 165.848 248.148 167.496V167.906C248.148 169.523 248.496 170.785 249.191 171.691C249.895 172.598 250.883 173.051 252.156 173.051ZM266.863 172.102L271.902 161.32H273.637V174H272.23V163.594L267.355 174H266.359L261.391 163.359V174H259.996V161.32H261.836L266.863 172.102ZM276.625 167.473C276.625 166.254 276.859 165.156 277.328 164.18C277.805 163.203 278.473 162.445 279.332 161.906C280.199 161.359 281.18 161.086 282.273 161.086C283.961 161.086 285.328 161.68 286.375 162.867C287.422 164.047 287.945 165.613 287.945 167.566V167.859C287.945 169.086 287.707 170.191 287.23 171.176C286.762 172.152 286.098 172.906 285.238 173.438C284.379 173.969 283.398 174.234 282.297 174.234C280.617 174.234 279.25 173.645 278.195 172.465C277.148 171.277 276.625 169.707 276.625 167.754V167.473ZM278.031 167.859C278.031 169.375 278.422 170.621 279.203 171.598C279.992 172.566 281.023 173.051 282.297 173.051C283.562 173.051 284.586 172.566 285.367 171.598C286.156 170.621 286.551 169.336 286.551 167.742V167.473C286.551 166.504 286.371 165.617 286.012 164.812C285.652 164.008 285.148 163.387 284.5 162.949C283.852 162.504 283.109 162.281 282.273 162.281C281.023 162.281 280.004 162.773 279.215 163.758C278.426 164.734 278.031 166.016 278.031 167.602V167.859ZM295.539 173.051C296.516 173.051 297.332 172.777 297.988 172.23C298.652 171.676 299.012 170.961 299.066 170.086H300.414C300.375 170.859 300.133 171.566 299.688 172.207C299.242 172.84 298.648 173.336 297.906 173.695C297.172 174.055 296.383 174.234 295.539 174.234C293.875 174.234 292.555 173.656 291.578 172.5C290.609 171.344 290.125 169.789 290.125 167.836V167.414C290.125 166.164 290.344 165.059 290.781 164.098C291.219 163.137 291.844 162.395 292.656 161.871C293.477 161.348 294.434 161.086 295.527 161.086C296.918 161.086 298.062 161.5 298.961 162.328C299.867 163.156 300.352 164.246 300.414 165.598H299.066C299.004 164.605 298.645 163.805 297.988 163.195C297.34 162.586 296.52 162.281 295.527 162.281C294.262 162.281 293.277 162.738 292.574 163.652C291.879 164.566 291.531 165.848 291.531 167.496V167.906C291.531 169.523 291.879 170.785 292.574 171.691C293.277 172.598 294.266 173.051 295.539 173.051Z" fill="black"/>
<path d="M226.374 218C226.269 217.701 226.201 217.259 226.172 216.673C225.803 217.153 225.331 217.525 224.757 217.789C224.188 218.047 223.585 218.176 222.946 218.176C222.032 218.176 221.291 217.921 220.723 217.411C220.16 216.901 219.879 216.257 219.879 215.478C219.879 214.552 220.263 213.819 221.03 213.28C221.804 212.741 222.879 212.472 224.256 212.472H226.163V211.391C226.163 210.711 225.952 210.178 225.53 209.791C225.114 209.398 224.505 209.202 223.702 209.202C222.97 209.202 222.363 209.39 221.883 209.765C221.402 210.14 221.162 210.591 221.162 211.118L220.107 211.109C220.107 210.354 220.459 209.7 221.162 209.149C221.865 208.593 222.729 208.314 223.755 208.314C224.815 208.314 225.65 208.581 226.26 209.114C226.875 209.642 227.191 210.38 227.209 211.329V215.829C227.209 216.749 227.306 217.438 227.499 217.895V218H226.374ZM223.069 217.244C223.772 217.244 224.399 217.074 224.95 216.734C225.507 216.395 225.911 215.94 226.163 215.372V213.28H224.282C223.233 213.292 222.413 213.485 221.821 213.86C221.229 214.229 220.934 214.739 220.934 215.39C220.934 215.923 221.13 216.365 221.522 216.717C221.921 217.068 222.437 217.244 223.069 217.244ZM236.71 209.387H233.247V218H232.192V209.387H228.861V208.49H236.71V209.387ZM243.706 216.576L247.485 208.49H248.786V218H247.731V210.195L244.075 218H243.328L239.602 210.02V218H238.556V208.49H239.936L243.706 216.576ZM251.027 213.104C251.027 212.19 251.203 211.367 251.555 210.635C251.912 209.902 252.413 209.334 253.058 208.93C253.708 208.52 254.443 208.314 255.264 208.314C256.529 208.314 257.555 208.76 258.34 209.65C259.125 210.535 259.518 211.71 259.518 213.175V213.395C259.518 214.314 259.339 215.144 258.981 215.882C258.63 216.614 258.132 217.18 257.487 217.578C256.843 217.977 256.107 218.176 255.281 218.176C254.021 218.176 252.996 217.733 252.205 216.849C251.42 215.958 251.027 214.78 251.027 213.315V213.104ZM252.082 213.395C252.082 214.531 252.375 215.466 252.961 216.198C253.553 216.925 254.326 217.288 255.281 217.288C256.23 217.288 256.998 216.925 257.584 216.198C258.176 215.466 258.472 214.502 258.472 213.307V213.104C258.472 212.378 258.337 211.713 258.067 211.109C257.798 210.506 257.42 210.04 256.934 209.712C256.447 209.378 255.891 209.211 255.264 209.211C254.326 209.211 253.562 209.58 252.97 210.318C252.378 211.051 252.082 212.012 252.082 213.201V213.395ZM265.213 217.288C265.945 217.288 266.558 217.083 267.05 216.673C267.548 216.257 267.817 215.721 267.858 215.064H268.869C268.84 215.645 268.658 216.175 268.324 216.655C267.99 217.13 267.545 217.502 266.988 217.771C266.438 218.041 265.846 218.176 265.213 218.176C263.965 218.176 262.975 217.742 262.242 216.875C261.516 216.008 261.152 214.842 261.152 213.377V213.061C261.152 212.123 261.316 211.294 261.645 210.573C261.973 209.853 262.441 209.296 263.051 208.903C263.666 208.511 264.384 208.314 265.204 208.314C266.247 208.314 267.105 208.625 267.779 209.246C268.459 209.867 268.822 210.685 268.869 211.698H267.858C267.812 210.954 267.542 210.354 267.05 209.896C266.563 209.439 265.948 209.211 265.204 209.211C264.255 209.211 263.517 209.554 262.989 210.239C262.468 210.925 262.207 211.886 262.207 213.122V213.43C262.207 214.643 262.468 215.589 262.989 216.269C263.517 216.948 264.258 217.288 265.213 217.288ZM270.583 213.324C270.583 211.777 270.885 210.556 271.488 209.659C272.098 208.763 272.938 208.314 274.011 208.314C274.626 208.314 275.147 208.452 275.575 208.728V204.5H276.621V208.763C277.055 208.464 277.594 208.314 278.238 208.314C279.252 208.314 280.063 208.722 280.673 209.536C281.282 210.351 281.613 211.484 281.666 212.938L281.675 213.509C281.675 214.956 281.37 216.099 280.761 216.937C280.151 217.769 279.316 218.185 278.256 218.185C277.623 218.185 277.078 218.047 276.621 217.771V221.656H275.575V217.78C275.124 218.05 274.597 218.185 273.993 218.185C272.991 218.185 272.188 217.807 271.585 217.051C270.981 216.289 270.65 215.237 270.592 213.896L270.583 213.324ZM280.629 213.324C280.629 212.047 280.397 211.042 279.935 210.31C279.478 209.577 278.836 209.211 278.01 209.211C277.412 209.211 276.949 209.34 276.621 209.598V216.954C276.99 217.183 277.459 217.297 278.027 217.297C278.848 217.297 279.486 216.969 279.943 216.312C280.4 215.65 280.629 214.654 280.629 213.324ZM271.638 213.509C271.638 214.704 271.857 215.636 272.297 216.304C272.736 216.966 273.369 217.297 274.195 217.297C274.746 217.297 275.206 217.177 275.575 216.937V209.571C275.235 209.331 274.781 209.211 274.213 209.211C273.393 209.211 272.757 209.577 272.306 210.31C271.86 211.036 271.638 212.103 271.638 213.509ZM287.704 218.176C286.896 218.176 286.163 217.977 285.507 217.578C284.856 217.18 284.35 216.626 283.986 215.917C283.623 215.202 283.441 214.402 283.441 213.518V213.14C283.441 212.226 283.617 211.402 283.969 210.67C284.326 209.938 284.821 209.363 285.454 208.947C286.087 208.525 286.772 208.314 287.511 208.314C288.665 208.314 289.579 208.71 290.253 209.501C290.933 210.286 291.272 211.361 291.272 212.727V213.315H284.487V213.518C284.487 214.596 284.795 215.495 285.41 216.216C286.031 216.931 286.811 217.288 287.748 217.288C288.311 217.288 288.806 217.186 289.233 216.98C289.667 216.775 290.06 216.447 290.411 215.996L291.07 216.497C290.297 217.616 289.175 218.176 287.704 218.176ZM287.511 209.211C286.72 209.211 286.052 209.501 285.507 210.081C284.968 210.661 284.64 211.44 284.522 212.419H290.227V212.305C290.197 211.391 289.937 210.646 289.444 210.072C288.952 209.498 288.308 209.211 287.511 209.211ZM300.967 213.342C300.967 214.824 300.639 216.002 299.982 216.875C299.326 217.742 298.447 218.176 297.346 218.176C296.045 218.176 295.049 217.719 294.357 216.805V221.656H293.312V208.49H294.287L294.34 209.835C295.025 208.821 296.019 208.314 297.319 208.314C298.456 208.314 299.347 208.745 299.991 209.606C300.642 210.468 300.967 211.663 300.967 213.192V213.342ZM299.912 213.157C299.912 211.944 299.663 210.986 299.165 210.283C298.667 209.58 297.973 209.229 297.082 209.229C296.438 209.229 295.884 209.384 295.421 209.694C294.958 210.005 294.604 210.456 294.357 211.048V215.609C294.609 216.154 294.97 216.57 295.438 216.857C295.907 217.145 296.461 217.288 297.1 217.288C297.984 217.288 298.673 216.937 299.165 216.233C299.663 215.524 299.912 214.499 299.912 213.157ZM309.308 218C309.202 217.701 309.135 217.259 309.105 216.673C308.736 217.153 308.265 217.525 307.69 217.789C307.122 218.047 306.519 218.176 305.88 218.176C304.966 218.176 304.225 217.921 303.656 217.411C303.094 216.901 302.812 216.257 302.812 215.478C302.812 214.552 303.196 213.819 303.964 213.28C304.737 212.741 305.812 212.472 307.189 212.472H309.097V211.391C309.097 210.711 308.886 210.178 308.464 209.791C308.048 209.398 307.438 209.202 306.636 209.202C305.903 209.202 305.297 209.39 304.816 209.765C304.336 210.14 304.096 210.591 304.096 211.118L303.041 211.109C303.041 210.354 303.393 209.7 304.096 209.149C304.799 208.593 305.663 208.314 306.688 208.314C307.749 208.314 308.584 208.581 309.193 209.114C309.809 209.642 310.125 210.38 310.143 211.329V215.829C310.143 216.749 310.239 217.438 310.433 217.895V218H309.308ZM306.003 217.244C306.706 217.244 307.333 217.074 307.884 216.734C308.44 216.395 308.845 215.94 309.097 215.372V213.28H307.216C306.167 213.292 305.347 213.485 304.755 213.86C304.163 214.229 303.867 214.739 303.867 215.39C303.867 215.923 304.063 216.365 304.456 216.717C304.854 217.068 305.37 217.244 306.003 217.244Z" fill="black"/>
<path d="M237.258 266.672C237.258 265.906 236.973 265.316 236.402 264.902C235.832 264.488 235.047 264.281 234.047 264.281C233.141 264.281 232.363 264.516 231.715 264.984C231.074 265.445 230.754 266.031 230.754 266.742H229.359C229.359 265.688 229.809 264.816 230.707 264.129C231.613 263.441 232.727 263.098 234.047 263.098C235.5 263.098 236.633 263.41 237.445 264.035C238.258 264.66 238.664 265.547 238.664 266.695C238.664 267.305 238.477 267.855 238.102 268.348C237.727 268.84 237.18 269.223 236.461 269.496C238.086 269.941 238.898 270.949 238.898 272.52C238.898 273.66 238.457 274.562 237.574 275.227C236.691 275.891 235.52 276.223 234.059 276.223C232.645 276.223 231.473 275.867 230.543 275.156C229.613 274.445 229.148 273.516 229.148 272.367H230.555C230.555 273.133 230.891 273.773 231.562 274.289C232.242 274.797 233.074 275.051 234.059 275.051C235.129 275.051 235.965 274.828 236.566 274.383C237.176 273.93 237.48 273.316 237.48 272.543C237.48 271.691 237.203 271.078 236.648 270.703C236.094 270.328 235.246 270.141 234.105 270.141H232.172V268.922H234.34C236.285 268.875 237.258 268.125 237.258 266.672ZM246.902 276.234C245.824 276.234 244.848 275.969 243.973 275.438C243.105 274.906 242.43 274.168 241.945 273.223C241.461 272.27 241.219 271.203 241.219 270.023V269.52C241.219 268.301 241.453 267.203 241.922 266.227C242.398 265.25 243.059 264.484 243.902 263.93C244.746 263.367 245.66 263.086 246.645 263.086C248.184 263.086 249.402 263.613 250.301 264.668C251.207 265.715 251.66 267.148 251.66 268.969V269.754H242.613V270.023C242.613 271.461 243.023 272.66 243.844 273.621C244.672 274.574 245.711 275.051 246.961 275.051C247.711 275.051 248.371 274.914 248.941 274.641C249.52 274.367 250.043 273.93 250.512 273.328L251.391 273.996C250.359 275.488 248.863 276.234 246.902 276.234ZM246.645 264.281C245.59 264.281 244.699 264.668 243.973 265.441C243.254 266.215 242.816 267.254 242.66 268.559H250.266V268.406C250.227 267.188 249.879 266.195 249.223 265.43C248.566 264.664 247.707 264.281 246.645 264.281ZM261.41 274.102L266.449 263.32H268.184V276H266.777V265.594L261.902 276H260.906L255.938 265.359V276H254.543V263.32H256.383L261.41 274.102ZM281.695 263.32V276H280.289V264.527H275.098L274.875 269.273C274.781 271.031 274.605 272.375 274.348 273.305C274.09 274.227 273.707 274.906 273.199 275.344C272.691 275.781 272.016 276 271.172 276H270.633V274.758L271.066 274.734C271.871 274.719 272.449 274.328 272.801 273.562C273.152 272.797 273.383 271.43 273.492 269.461L273.75 263.32H281.695ZM294.715 263.32V276H293.309V270.891H289.371L286.277 276H284.73L287.918 270.715C287.051 270.488 286.375 270.051 285.891 269.402C285.414 268.754 285.176 267.988 285.176 267.105C285.176 265.957 285.586 265.039 286.406 264.352C287.234 263.664 288.352 263.32 289.758 263.32H294.715ZM286.582 267.129C286.582 267.871 286.816 268.48 287.285 268.957C287.762 269.434 288.422 269.68 289.266 269.695H293.309V264.516H289.723C288.746 264.516 287.977 264.75 287.414 265.219C286.859 265.688 286.582 266.324 286.582 267.129Z" fill="black"/>
<path d="M253.023 28.7891C253.023 30.7656 252.586 32.3359 251.711 33.5C250.836 34.6562 249.664 35.2344 248.195 35.2344C246.461 35.2344 245.133 34.625 244.211 33.4062V39.875H242.816V22.3203H244.117L244.188 24.1133C245.102 22.7617 246.426 22.0859 248.16 22.0859C249.676 22.0859 250.863 22.6602 251.723 23.8086C252.59 24.957 253.023 26.5508 253.023 28.5898V28.7891ZM251.617 28.543C251.617 26.9258 251.285 25.6484 250.621 24.7109C249.957 23.7734 249.031 23.3047 247.844 23.3047C246.984 23.3047 246.246 23.5117 245.629 23.9258C245.012 24.3398 244.539 24.9414 244.211 25.7305V31.8125C244.547 32.5391 245.027 33.0938 245.652 33.4766C246.277 33.8594 247.016 34.0508 247.867 34.0508C249.047 34.0508 249.965 33.582 250.621 32.6445C251.285 31.6992 251.617 30.332 251.617 28.543ZM264.145 35C264.004 34.6016 263.914 34.0117 263.875 33.2305C263.383 33.8711 262.754 34.3672 261.988 34.7188C261.23 35.0625 260.426 35.2344 259.574 35.2344C258.355 35.2344 257.367 34.8945 256.609 34.2148C255.859 33.5352 255.484 32.6758 255.484 31.6367C255.484 30.4023 255.996 29.4258 257.02 28.707C258.051 27.9883 259.484 27.6289 261.32 27.6289H263.863V26.1875C263.863 25.2812 263.582 24.5703 263.02 24.0547C262.465 23.5312 261.652 23.2695 260.582 23.2695C259.605 23.2695 258.797 23.5195 258.156 24.0195C257.516 24.5195 257.195 25.1211 257.195 25.8242L255.789 25.8125C255.789 24.8047 256.258 23.9336 257.195 23.1992C258.133 22.457 259.285 22.0859 260.652 22.0859C262.066 22.0859 263.18 22.4414 263.992 23.1523C264.812 23.8555 265.234 24.8398 265.258 26.1055V32.1055C265.258 33.332 265.387 34.25 265.645 34.8594V35H264.145ZM259.738 33.9922C260.676 33.9922 261.512 33.7656 262.246 33.3125C262.988 32.8594 263.527 32.2539 263.863 31.4961V28.707H261.355C259.957 28.7227 258.863 28.9805 258.074 29.4805C257.285 29.9727 256.891 30.6523 256.891 31.5195C256.891 32.2305 257.152 32.8203 257.676 33.2891C258.207 33.7578 258.895 33.9922 259.738 33.9922ZM277.34 22.3203H278.746V35H277.34V24.582L270.496 35H269.102V22.3203H270.496V32.75L277.34 22.3203ZM277.27 17.75C277.27 18.6484 276.961 19.375 276.344 19.9297C275.734 20.4844 274.914 20.7617 273.883 20.7617C272.867 20.7617 272.047 20.4883 271.422 19.9414C270.805 19.3867 270.496 18.6562 270.496 17.75H271.691C271.691 18.3984 271.883 18.8945 272.266 19.2383C272.656 19.582 273.195 19.7539 273.883 19.7539C274.57 19.7539 275.105 19.5742 275.488 19.2148C275.879 18.8555 276.074 18.3672 276.074 17.75H277.27Z" fill="black"/>
<path d="M252.832 84C252.691 83.6016 252.602 83.0117 252.562 82.2305C252.07 82.8711 251.441 83.3672 250.676 83.7188C249.918 84.0625 249.113 84.2344 248.262 84.2344C247.043 84.2344 246.055 83.8945 245.297 83.2148C244.547 82.5352 244.172 81.6758 244.172 80.6367C244.172 79.4023 244.684 78.4258 245.707 77.707C246.738 76.9883 248.172 76.6289 250.008 76.6289H252.551V75.1875C252.551 74.2812 252.27 73.5703 251.707 73.0547C251.152 72.5312 250.34 72.2695 249.27 72.2695C248.293 72.2695 247.484 72.5195 246.844 73.0195C246.203 73.5195 245.883 74.1211 245.883 74.8242L244.477 74.8125C244.477 73.8047 244.945 72.9336 245.883 72.1992C246.82 71.457 247.973 71.0859 249.34 71.0859C250.754 71.0859 251.867 71.4414 252.68 72.1523C253.5 72.8555 253.922 73.8398 253.945 75.1055V81.1055C253.945 82.332 254.074 83.25 254.332 83.8594V84H252.832ZM248.426 82.9922C249.363 82.9922 250.199 82.7656 250.934 82.3125C251.676 81.8594 252.215 81.2539 252.551 80.4961V77.707H250.043C248.645 77.7227 247.551 77.9805 246.762 78.4805C245.973 78.9727 245.578 79.6523 245.578 80.5195C245.578 81.2305 245.84 81.8203 246.363 82.2891C246.895 82.7578 247.582 82.9922 248.426 82.9922ZM257.402 82.8164L258.023 82.0078C259.008 80.6719 259.574 78.7188 259.723 76.1484L259.945 71.3203H267.434V82.8164H268.746V87.7266H267.352V84H257.824V87.7266H256.477L256.488 82.8164H257.402ZM259.02 82.8164H266.027V72.6328H261.281L261.129 75.9258C260.988 78.9492 260.285 81.2461 259.02 82.8164Z" fill="black"/>
</svg>
