<svg width="438" height="438" viewBox="0 0 438 438" fill="none" xmlns="http://www.w3.org/2000/svg">
<circle cx="219" cy="219" r="217.5" stroke="black" stroke-width="3"/>
<path d="M213.707 157.293C213.317 156.902 212.683 156.902 212.293 157.293L205.929 163.657C205.538 164.047 205.538 164.68 205.929 165.071C206.319 165.462 206.953 165.462 207.343 165.071L213 159.414L218.657 165.071C219.047 165.462 219.681 165.462 220.071 165.071C220.462 164.68 220.462 164.047 220.071 163.657L213.707 157.293ZM214 219.033V158H212V219.033H214Z" fill="black"/>
<path d="M213.707 23.2929C213.317 22.9024 212.683 22.9024 212.293 23.2929L205.929 29.6569C205.538 30.0474 205.538 30.6805 205.929 31.0711C206.319 31.4616 206.953 31.4616 207.343 31.0711L213 25.4142L218.657 31.0711C219.047 31.4616 219.681 31.4616 220.071 31.0711C220.462 30.6805 220.462 30.0474 220.071 29.6569L213.707 23.2929ZM214 136V24H212V136H214Z" fill="black"/>
<path d="M151.293 218.293C150.903 218.683 150.903 219.317 151.293 219.707L157.657 226.071C158.048 226.462 158.681 226.462 159.071 226.071C159.462 225.681 159.462 225.047 159.071 224.657L153.415 219L159.071 213.343C159.462 212.953 159.462 212.319 159.071 211.929C158.681 211.538 158.048 211.538 157.657 211.929L151.293 218.293ZM213.033 218H152V220H213.033V218Z" fill="black"/>
<path d="M30.2929 218.293C29.9024 218.683 29.9024 219.317 30.2929 219.707L36.6569 226.071C37.0474 226.462 37.6805 226.462 38.0711 226.071C38.4616 225.681 38.4616 225.047 38.0711 224.657L32.4142 219L38.0711 213.343C38.4616 212.953 38.4616 212.319 38.0711 211.929C37.6805 211.538 37.0474 211.538 36.6569 211.929L30.2929 218.293ZM126 218H31V220H126V218Z" fill="black"/>
<path d="M274.74 218.293C275.13 218.683 275.13 219.317 274.74 219.707L268.376 226.071C267.985 226.462 267.352 226.462 266.962 226.071C266.571 225.681 266.571 225.047 266.962 224.657L272.619 219L266.962 213.343C266.571 212.953 266.571 212.319 266.962 211.929C267.352 211.538 267.985 211.538 268.376 211.929L274.74 218.293ZM213 218H274.033V220H213V218Z" fill="black"/>
<path d="M403.707 219.707C404.098 219.317 404.098 218.683 403.707 218.293L397.343 211.929C396.953 211.538 396.319 211.538 395.929 211.929C395.538 212.319 395.538 212.953 395.929 213.343L401.586 219L395.929 224.657C395.538 225.047 395.538 225.681 395.929 226.071C396.319 226.462 396.953 226.462 397.343 226.071L403.707 219.707ZM293 220H403V218H293V220Z" fill="black"/>
<path d="M213.707 280.74C213.317 281.13 212.683 281.13 212.293 280.74L205.929 274.376C205.538 273.985 205.538 273.352 205.929 272.962C206.319 272.571 206.953 272.571 207.343 272.962L213 278.619L218.657 272.962C219.047 272.571 219.681 272.571 220.071 272.962C220.462 273.352 220.462 273.985 220.071 274.376L213.707 280.74ZM214 219V280.033H212V219H214Z" fill="black"/>
<path d="M212.293 407.707C212.683 408.098 213.317 408.098 213.707 407.707L220.071 401.343C220.462 400.953 220.462 400.319 220.071 399.929C219.681 399.538 219.047 399.538 218.657 399.929L213 405.586L207.343 399.929C206.953 399.538 206.319 399.538 205.929 399.929C205.538 400.319 205.538 400.953 205.929 401.343L212.293 407.707ZM212 301V407H214V301H212Z" fill="black"/>
<path d="M240 46H237.832V40.5859H232.008V46H229.828V33.3203H232.008V38.8164H237.832V33.3203H240V46ZM234.902 74.2344C233.184 74.2344 231.785 73.6719 230.707 72.5469C229.629 71.4141 229.09 69.9023 229.09 68.0117V67.6133C229.09 66.3555 229.328 65.2344 229.805 64.25C230.289 63.2578 230.961 62.4844 231.82 61.9297C232.688 61.3672 233.625 61.0859 234.633 61.0859C236.281 61.0859 237.562 61.6289 238.477 62.7148C239.391 63.8008 239.848 65.3555 239.848 67.3789V68.2812H231.258C231.289 69.5312 231.652 70.543 232.348 71.3164C233.051 72.082 233.941 72.4648 235.02 72.4648C235.785 72.4648 236.434 72.3086 236.965 71.9961C237.496 71.6836 237.961 71.2695 238.359 70.7539L239.684 71.7852C238.621 73.418 237.027 74.2344 234.902 74.2344ZM234.633 62.8672C233.758 62.8672 233.023 63.1875 232.43 63.8281C231.836 64.4609 231.469 65.3516 231.328 66.5H237.68V66.3359C237.617 65.2344 237.32 64.3828 236.789 63.7812C236.258 63.1719 235.539 62.8672 234.633 62.8672ZM235.207 90.0469C236.801 90.0469 238.074 90.582 239.027 91.6523C239.988 92.7148 240.469 94.1172 240.469 95.8594V96.0586C240.469 97.2539 240.238 98.3242 239.777 99.2695C239.316 100.207 238.652 100.938 237.785 101.461C236.926 101.977 235.934 102.234 234.809 102.234C233.105 102.234 231.734 101.668 230.695 100.535C229.656 99.3945 229.137 97.8672 229.137 95.9531V94.8984C229.137 92.2344 229.629 90.1172 230.613 88.5469C231.605 86.9766 233.066 86.0195 234.996 85.6758C236.09 85.4805 236.828 85.2422 237.211 84.9609C237.594 84.6797 237.785 84.293 237.785 83.8008H239.566C239.566 84.7773 239.344 85.5391 238.898 86.0859C238.461 86.6328 237.758 87.0195 236.789 87.2461L235.172 87.6094C233.883 87.9141 232.914 88.4297 232.266 89.1562C231.625 89.875 231.207 90.8359 231.012 92.0391C232.16 90.7109 233.559 90.0469 235.207 90.0469ZM234.785 91.8281C233.723 91.8281 232.879 92.1875 232.254 92.9062C231.629 93.6172 231.316 94.6055 231.316 95.8711V96.0586C231.316 97.418 231.629 98.4961 232.254 99.293C232.887 100.082 233.738 100.477 234.809 100.477C235.887 100.477 236.738 100.078 237.363 99.2812C237.988 98.4844 238.301 97.3203 238.301 95.7891C238.301 94.5938 237.984 93.6367 237.352 92.918C236.727 92.1914 235.871 91.8281 234.785 91.8281ZM229.066 123.543C229.066 122.301 229.309 121.184 229.793 120.191C230.285 119.199 230.965 118.434 231.832 117.895C232.707 117.355 233.703 117.086 234.82 117.086C236.547 117.086 237.941 117.684 239.004 118.879C240.074 120.074 240.609 121.664 240.609 123.648V123.801C240.609 125.035 240.371 126.145 239.895 127.129C239.426 128.105 238.75 128.867 237.867 129.414C236.992 129.961 235.984 130.234 234.844 130.234C233.125 130.234 231.73 129.637 230.66 128.441C229.598 127.246 229.066 125.664 229.066 123.695V123.543ZM231.246 123.801C231.246 125.207 231.57 126.336 232.219 127.188C232.875 128.039 233.75 128.465 234.844 128.465C235.945 128.465 236.82 128.035 237.469 127.176C238.117 126.309 238.441 125.098 238.441 123.543C238.441 122.152 238.109 121.027 237.445 120.168C236.789 119.301 235.914 118.867 234.82 118.867C233.75 118.867 232.887 119.293 232.23 120.145C231.574 120.996 231.246 122.215 231.246 123.801Z" fill="#330B28"/>
<path d="M65 204H62.832V198.586H57.0078V204H54.8281V191.32H57.0078V196.816H62.832V191.32H65V204ZM73.7539 204.234C72.0352 204.234 70.6367 203.672 69.5586 202.547C68.4805 201.414 67.9414 199.902 67.9414 198.012V197.613C67.9414 196.355 68.1797 195.234 68.6562 194.25C69.1406 193.258 69.8125 192.484 70.6719 191.93C71.5391 191.367 72.4766 191.086 73.4844 191.086C75.1328 191.086 76.4141 191.629 77.3281 192.715C78.2422 193.801 78.6992 195.355 78.6992 197.379V198.281H70.1094C70.1406 199.531 70.5039 200.543 71.1992 201.316C71.9023 202.082 72.793 202.465 73.8711 202.465C74.6367 202.465 75.2852 202.309 75.8164 201.996C76.3477 201.684 76.8125 201.27 77.2109 200.754L78.5352 201.785C77.4727 203.418 75.8789 204.234 73.7539 204.234ZM73.4844 192.867C72.6094 192.867 71.875 193.188 71.2812 193.828C70.6875 194.461 70.3203 195.352 70.1797 196.5H76.5312V196.336C76.4688 195.234 76.1719 194.383 75.6406 193.781C75.1094 193.172 74.3906 192.867 73.4844 192.867ZM86.7852 192.047C88.3789 192.047 89.6523 192.582 90.6055 193.652C91.5664 194.715 92.0469 196.117 92.0469 197.859V198.059C92.0469 199.254 91.8164 200.324 91.3555 201.27C90.8945 202.207 90.2305 202.938 89.3633 203.461C88.5039 203.977 87.5117 204.234 86.3867 204.234C84.6836 204.234 83.3125 203.668 82.2734 202.535C81.2344 201.395 80.7148 199.867 80.7148 197.953V196.898C80.7148 194.234 81.207 192.117 82.1914 190.547C83.1836 188.977 84.6445 188.02 86.5742 187.676C87.668 187.48 88.4062 187.242 88.7891 186.961C89.1719 186.68 89.3633 186.293 89.3633 185.801H91.1445C91.1445 186.777 90.9219 187.539 90.4766 188.086C90.0391 188.633 89.3359 189.02 88.3672 189.246L86.75 189.609C85.4609 189.914 84.4922 190.43 83.8438 191.156C83.2031 191.875 82.7852 192.836 82.5898 194.039C83.7383 192.711 85.1367 192.047 86.7852 192.047ZM86.3633 193.828C85.3008 193.828 84.457 194.188 83.832 194.906C83.207 195.617 82.8945 196.605 82.8945 197.871V198.059C82.8945 199.418 83.207 200.496 83.832 201.293C84.4648 202.082 85.3164 202.477 86.3867 202.477C87.4648 202.477 88.3164 202.078 88.9414 201.281C89.5664 200.484 89.8789 199.32 89.8789 197.789C89.8789 196.594 89.5625 195.637 88.9297 194.918C88.3047 194.191 87.4492 193.828 86.3633 193.828ZM93.9102 197.543C93.9102 196.301 94.1523 195.184 94.6367 194.191C95.1289 193.199 95.8086 192.434 96.6758 191.895C97.5508 191.355 98.5469 191.086 99.6641 191.086C101.391 191.086 102.785 191.684 103.848 192.879C104.918 194.074 105.453 195.664 105.453 197.648V197.801C105.453 199.035 105.215 200.145 104.738 201.129C104.27 202.105 103.594 202.867 102.711 203.414C101.836 203.961 100.828 204.234 99.6875 204.234C97.9688 204.234 96.5742 203.637 95.5039 202.441C94.4414 201.246 93.9102 199.664 93.9102 197.695V197.543ZM96.0898 197.801C96.0898 199.207 96.4141 200.336 97.0625 201.188C97.7188 202.039 98.5938 202.465 99.6875 202.465C100.789 202.465 101.664 202.035 102.312 201.176C102.961 200.309 103.285 199.098 103.285 197.543C103.285 196.152 102.953 195.027 102.289 194.168C101.633 193.301 100.758 192.867 99.6641 192.867C98.5938 192.867 97.7305 193.293 97.0742 194.145C96.418 194.996 96.0898 196.215 96.0898 197.801Z" fill="#330B28"/>
<path d="M334 248H331.832V242.586H326.008V248H323.828V235.32H326.008V240.816H331.832V235.32H334V248ZM345.695 235.32H347.863V248H345.695V238.754L339.848 248H337.68V235.32H339.848V244.578L345.695 235.32ZM358.316 238.789C358.316 238.195 358.09 237.727 357.637 237.383C357.184 237.031 356.562 236.855 355.773 236.855C355.008 236.855 354.367 237.055 353.852 237.453C353.344 237.852 353.09 238.32 353.09 238.859H350.934C350.934 237.758 351.395 236.855 352.316 236.152C353.238 235.449 354.391 235.098 355.773 235.098C357.258 235.098 358.414 235.418 359.242 236.059C360.07 236.691 360.484 237.598 360.484 238.777C360.484 239.348 360.312 239.871 359.969 240.348C359.625 240.824 359.137 241.203 358.504 241.484C359.98 241.984 360.719 242.969 360.719 244.438C360.719 245.602 360.27 246.523 359.371 247.203C358.473 247.883 357.273 248.223 355.773 248.223C354.312 248.223 353.105 247.867 352.152 247.156C351.207 246.438 350.734 245.469 350.734 244.25H352.891C352.891 244.867 353.164 245.398 353.711 245.844C354.266 246.281 354.953 246.5 355.773 246.5C356.602 246.5 357.27 246.309 357.777 245.926C358.285 245.543 358.539 245.047 358.539 244.438C358.539 243.727 358.324 243.219 357.895 242.914C357.473 242.602 356.812 242.445 355.914 242.445H353.746V240.617H356.102C357.578 240.578 358.316 239.969 358.316 238.789Z" fill="#330B28"/>
<path d="M319.613 194.789C319.613 194.195 319.387 193.727 318.934 193.383C318.48 193.031 317.859 192.855 317.07 192.855C316.305 192.855 315.664 193.055 315.148 193.453C314.641 193.852 314.387 194.32 314.387 194.859H312.23C312.23 193.758 312.691 192.855 313.613 192.152C314.535 191.449 315.688 191.098 317.07 191.098C318.555 191.098 319.711 191.418 320.539 192.059C321.367 192.691 321.781 193.598 321.781 194.777C321.781 195.348 321.609 195.871 321.266 196.348C320.922 196.824 320.434 197.203 319.801 197.484C321.277 197.984 322.016 198.969 322.016 200.438C322.016 201.602 321.566 202.523 320.668 203.203C319.77 203.883 318.57 204.223 317.07 204.223C315.609 204.223 314.402 203.867 313.449 203.156C312.504 202.438 312.031 201.469 312.031 200.25H314.188C314.188 200.867 314.461 201.398 315.008 201.844C315.562 202.281 316.25 202.5 317.07 202.5C317.898 202.5 318.566 202.309 319.074 201.926C319.582 201.543 319.836 201.047 319.836 200.438C319.836 199.727 319.621 199.219 319.191 198.914C318.77 198.602 318.109 198.445 317.211 198.445H315.043V196.617H317.398C318.875 196.578 319.613 195.969 319.613 194.789ZM330.09 204.234C328.371 204.234 326.973 203.672 325.895 202.547C324.816 201.414 324.277 199.902 324.277 198.012V197.613C324.277 196.355 324.516 195.234 324.992 194.25C325.477 193.258 326.148 192.484 327.008 191.93C327.875 191.367 328.812 191.086 329.82 191.086C331.469 191.086 332.75 191.629 333.664 192.715C334.578 193.801 335.035 195.355 335.035 197.379V198.281H326.445C326.477 199.531 326.84 200.543 327.535 201.316C328.238 202.082 329.129 202.465 330.207 202.465C330.973 202.465 331.621 202.309 332.152 201.996C332.684 201.684 333.148 201.27 333.547 200.754L334.871 201.785C333.809 203.418 332.215 204.234 330.09 204.234ZM329.82 192.867C328.945 192.867 328.211 193.188 327.617 193.828C327.023 194.461 326.656 195.352 326.516 196.5H332.867V196.336C332.805 195.234 332.508 194.383 331.977 193.781C331.445 193.172 330.727 192.867 329.82 192.867ZM344.855 201.129L349.168 191.32H351.875V204H349.707V194.777L345.605 204H344.105L339.922 194.578V204H337.754V191.32H340.566L344.855 201.129ZM365.762 191.32V204H363.582V193.113H359.27L359.012 197.859C358.871 200.039 358.504 201.598 357.91 202.535C357.324 203.473 356.391 203.961 355.109 204H354.242V202.09L354.863 202.043C355.566 201.965 356.07 201.559 356.375 200.824C356.68 200.09 356.875 198.73 356.961 196.746L357.195 191.32H365.762ZM378.934 191.32V204H376.754V199.066H373.484L370.496 204H368.152L371.34 198.738C370.527 198.441 369.902 197.984 369.465 197.367C369.035 196.742 368.82 196.016 368.82 195.188C368.82 194.031 369.254 193.102 370.121 192.398C370.988 191.688 372.148 191.328 373.602 191.32H378.934ZM371 195.211C371 195.828 371.211 196.328 371.633 196.711C372.055 197.086 372.613 197.277 373.309 197.285H376.754V193.078H373.637C372.832 193.078 372.191 193.277 371.715 193.676C371.238 194.066 371 194.578 371 195.211Z" fill="#330B28"/>
<path d="M54.8398 250V237.32H59.7852C61.4727 237.32 62.7656 237.617 63.6641 238.211C64.5703 238.797 65.0234 239.66 65.0234 240.801C65.0234 241.387 64.8477 241.918 64.4961 242.395C64.1445 242.863 63.625 243.223 62.9375 243.473C63.7031 243.652 64.3164 244.004 64.7773 244.527C65.2461 245.051 65.4805 245.676 65.4805 246.402C65.4805 247.566 65.0508 248.457 64.1914 249.074C63.3398 249.691 62.1328 250 60.5703 250H54.8398ZM57.0078 244.434V248.254H60.5938C61.5 248.254 62.1758 248.086 62.6211 247.75C63.0742 247.414 63.3008 246.941 63.3008 246.332C63.3008 245.066 62.3711 244.434 60.5117 244.434H57.0078ZM57.0078 242.699H59.8086C61.8398 242.699 62.8555 242.105 62.8555 240.918C62.8555 239.73 61.8945 239.117 59.9727 239.078H57.0078V242.699ZM73.6133 250.234C71.8945 250.234 70.4961 249.672 69.418 248.547C68.3398 247.414 67.8008 245.902 67.8008 244.012V243.613C67.8008 242.355 68.0391 241.234 68.5156 240.25C69 239.258 69.6719 238.484 70.5312 237.93C71.3984 237.367 72.3359 237.086 73.3438 237.086C74.9922 237.086 76.2734 237.629 77.1875 238.715C78.1016 239.801 78.5586 241.355 78.5586 243.379V244.281H69.9688C70 245.531 70.3633 246.543 71.0586 247.316C71.7617 248.082 72.6523 248.465 73.7305 248.465C74.4961 248.465 75.1445 248.309 75.6758 247.996C76.207 247.684 76.6719 247.27 77.0703 246.754L78.3945 247.785C77.332 249.418 75.7383 250.234 73.6133 250.234ZM73.3438 238.867C72.4688 238.867 71.7344 239.188 71.1406 239.828C70.5469 240.461 70.1797 241.352 70.0391 242.5H76.3906V242.336C76.3281 241.234 76.0312 240.383 75.5 239.781C74.9688 239.172 74.25 238.867 73.3438 238.867ZM91.7891 243.801C91.7891 245.73 91.3477 247.285 90.4648 248.465C89.582 249.645 88.3867 250.234 86.8789 250.234C85.3398 250.234 84.1289 249.746 83.2461 248.77V254.875H81.0781V237.32H83.0586L83.1641 238.727C84.0469 237.633 85.2734 237.086 86.8438 237.086C88.3672 237.086 89.5703 237.66 90.4531 238.809C91.3438 239.957 91.7891 241.555 91.7891 243.602V243.801ZM89.6211 243.555C89.6211 242.125 89.3164 240.996 88.707 240.168C88.0977 239.34 87.2617 238.926 86.1992 238.926C84.8867 238.926 83.9023 239.508 83.2461 240.672V246.73C83.8945 247.887 84.8867 248.465 86.2227 248.465C87.2617 248.465 88.0859 248.055 88.6953 247.234C89.3125 246.406 89.6211 245.18 89.6211 243.555ZM98.6211 241.949L101.434 237.32H103.965L99.8164 243.59L104.094 250H101.586L98.6562 245.254L95.7266 250H93.207L97.4844 243.59L93.3359 237.32H95.8438L98.6211 241.949Z" fill="#330B28"/>
<path d="M236.613 292.789C236.613 292.195 236.387 291.727 235.934 291.383C235.48 291.031 234.859 290.855 234.07 290.855C233.305 290.855 232.664 291.055 232.148 291.453C231.641 291.852 231.387 292.32 231.387 292.859H229.23C229.23 291.758 229.691 290.855 230.613 290.152C231.535 289.449 232.688 289.098 234.07 289.098C235.555 289.098 236.711 289.418 237.539 290.059C238.367 290.691 238.781 291.598 238.781 292.777C238.781 293.348 238.609 293.871 238.266 294.348C237.922 294.824 237.434 295.203 236.801 295.484C238.277 295.984 239.016 296.969 239.016 298.438C239.016 299.602 238.566 300.523 237.668 301.203C236.77 301.883 235.57 302.223 234.07 302.223C232.609 302.223 231.402 301.867 230.449 301.156C229.504 300.438 229.031 299.469 229.031 298.25H231.188C231.188 298.867 231.461 299.398 232.008 299.844C232.562 300.281 233.25 300.5 234.07 300.5C234.898 300.5 235.566 300.309 236.074 299.926C236.582 299.543 236.836 299.047 236.836 298.438C236.836 297.727 236.621 297.219 236.191 296.914C235.77 296.602 235.109 296.445 234.211 296.445H232.043V294.617H234.398C235.875 294.578 236.613 293.969 236.613 292.789ZM234.902 330.234C233.184 330.234 231.785 329.672 230.707 328.547C229.629 327.414 229.09 325.902 229.09 324.012V323.613C229.09 322.355 229.328 321.234 229.805 320.25C230.289 319.258 230.961 318.484 231.82 317.93C232.688 317.367 233.625 317.086 234.633 317.086C236.281 317.086 237.562 317.629 238.477 318.715C239.391 319.801 239.848 321.355 239.848 323.379V324.281H231.258C231.289 325.531 231.652 326.543 232.348 327.316C233.051 328.082 233.941 328.465 235.02 328.465C235.785 328.465 236.434 328.309 236.965 327.996C237.496 327.684 237.961 327.27 238.359 326.754L239.684 327.785C238.621 329.418 237.027 330.234 234.902 330.234ZM234.633 318.867C233.758 318.867 233.023 319.188 232.43 319.828C231.836 320.461 231.469 321.352 231.328 322.5H237.68V322.336C237.617 321.234 237.32 320.383 236.789 319.781C236.258 319.172 235.539 318.867 234.633 318.867ZM236.941 355.129L241.254 345.32H243.961V358H241.793V348.777L237.691 358H236.191L232.008 348.578V358H229.84V345.32H232.652L236.941 355.129ZM240.035 373.32V386H237.855V375.113H233.543L233.285 379.859C233.145 382.039 232.777 383.598 232.184 384.535C231.598 385.473 230.664 385.961 229.383 386H228.516V384.09L229.137 384.043C229.84 383.965 230.344 383.559 230.648 382.824C230.953 382.09 231.148 380.73 231.234 378.746L231.469 373.32H240.035ZM239.332 401.32V414H237.152V409.066H233.883L230.895 414H228.551L231.738 408.738C230.926 408.441 230.301 407.984 229.863 407.367C229.434 406.742 229.219 406.016 229.219 405.188C229.219 404.031 229.652 403.102 230.52 402.398C231.387 401.688 232.547 401.328 234 401.32H239.332ZM231.398 405.211C231.398 405.828 231.609 406.328 232.031 406.711C232.453 407.086 233.012 407.277 233.707 407.285H237.152V403.078H234.035C233.23 403.078 232.59 403.277 232.113 403.676C231.637 404.066 231.398 404.578 231.398 405.211Z" fill="#330B28"/>
<path d="M183.84 46V33.3203H188.785C190.473 33.3203 191.766 33.6172 192.664 34.2109C193.57 34.7969 194.023 35.6602 194.023 36.8008C194.023 37.3867 193.848 37.918 193.496 38.3945C193.145 38.8633 192.625 39.2227 191.938 39.4727C192.703 39.6523 193.316 40.0039 193.777 40.5273C194.246 41.0508 194.48 41.6758 194.48 42.4023C194.48 43.5664 194.051 44.457 193.191 45.0742C192.34 45.6914 191.133 46 189.57 46H183.84ZM186.008 40.4336V44.2539H189.594C190.5 44.2539 191.176 44.0859 191.621 43.75C192.074 43.4141 192.301 42.9414 192.301 42.332C192.301 41.0664 191.371 40.4336 189.512 40.4336H186.008ZM186.008 38.6992H188.809C190.84 38.6992 191.855 38.1055 191.855 36.918C191.855 35.7305 190.895 35.1172 188.973 35.0781H186.008V38.6992ZM188.902 74.2344C187.184 74.2344 185.785 73.6719 184.707 72.5469C183.629 71.4141 183.09 69.9023 183.09 68.0117V67.6133C183.09 66.3555 183.328 65.2344 183.805 64.25C184.289 63.2578 184.961 62.4844 185.82 61.9297C186.688 61.3672 187.625 61.0859 188.633 61.0859C190.281 61.0859 191.562 61.6289 192.477 62.7148C193.391 63.8008 193.848 65.3555 193.848 67.3789V68.2812H185.258C185.289 69.5312 185.652 70.543 186.348 71.3164C187.051 72.082 187.941 72.4648 189.02 72.4648C189.785 72.4648 190.434 72.3086 190.965 71.9961C191.496 71.6836 191.961 71.2695 192.359 70.7539L193.684 71.7852C192.621 73.418 191.027 74.2344 188.902 74.2344ZM188.633 62.8672C187.758 62.8672 187.023 63.1875 186.43 63.8281C185.836 64.4609 185.469 65.3516 185.328 66.5H191.68V66.3359C191.617 65.2344 191.32 64.3828 190.789 63.7812C190.258 63.1719 189.539 62.8672 188.633 62.8672ZM194.352 95.8008C194.352 97.7305 193.91 99.2852 193.027 100.465C192.145 101.645 190.949 102.234 189.441 102.234C187.902 102.234 186.691 101.746 185.809 100.77V106.875H183.641V89.3203H185.621L185.727 90.7266C186.609 89.6328 187.836 89.0859 189.406 89.0859C190.93 89.0859 192.133 89.6602 193.016 90.8086C193.906 91.957 194.352 93.5547 194.352 95.6016V95.8008ZM192.184 95.5547C192.184 94.125 191.879 92.9961 191.27 92.168C190.66 91.3398 189.824 90.9258 188.762 90.9258C187.449 90.9258 186.465 91.5078 185.809 92.6719V98.7305C186.457 99.8867 187.449 100.465 188.785 100.465C189.824 100.465 190.648 100.055 191.258 99.2344C191.875 98.4062 192.184 97.1797 192.184 95.5547ZM187.895 121.949L190.707 117.32H193.238L189.09 123.59L193.367 130H190.859L187.93 125.254L185 130H182.48L186.758 123.59L182.609 117.32H185.117L187.895 121.949Z" fill="#330B28"/>
<path d="M194 328H191.832V322.586H186.008V328H183.828V315.32H186.008V320.816H191.832V315.32H194V328ZM191.844 343.32H194.012V356H191.844V346.754L185.996 356H183.828V343.32H185.996V352.578L191.844 343.32ZM190.613 374.789C190.613 374.195 190.387 373.727 189.934 373.383C189.48 373.031 188.859 372.855 188.07 372.855C187.305 372.855 186.664 373.055 186.148 373.453C185.641 373.852 185.387 374.32 185.387 374.859H183.23C183.23 373.758 183.691 372.855 184.613 372.152C185.535 371.449 186.688 371.098 188.07 371.098C189.555 371.098 190.711 371.418 191.539 372.059C192.367 372.691 192.781 373.598 192.781 374.777C192.781 375.348 192.609 375.871 192.266 376.348C191.922 376.824 191.434 377.203 190.801 377.484C192.277 377.984 193.016 378.969 193.016 380.438C193.016 381.602 192.566 382.523 191.668 383.203C190.77 383.883 189.57 384.223 188.07 384.223C186.609 384.223 185.402 383.867 184.449 383.156C183.504 382.438 183.031 381.469 183.031 380.25H185.188C185.188 380.867 185.461 381.398 186.008 381.844C186.562 382.281 187.25 382.5 188.07 382.5C188.898 382.5 189.566 382.309 190.074 381.926C190.582 381.543 190.836 381.047 190.836 380.438C190.836 379.727 190.621 379.219 190.191 378.914C189.77 378.602 189.109 378.445 188.211 378.445H186.043V376.617H188.398C189.875 376.578 190.613 375.969 190.613 374.789Z" fill="#330B28"/>
</svg>
